# xmcd CD database file
#
# Track frame offsets:
#	182
#	18580
#	38155
#	56977
#	74147
#	92010
#	110982
#	129247
#	146882
#	162625
#
# Disc length: 2413 seconds
#
# Revision: 1
# Processed by: cddbd v1.5.2PL0 Copyright (c) Steve Scherf et al.
# Submitted via: CDex 1.70beta2
#
DISCID=9f096b0a
DTITLE=Jon Brosnan - Jon Brosnan Sings Country
DYEAR=1996
DGENRE=Country
TTITLE0=Heartaches Come In Numbers
TTITLE1=Celebrate With The Country Stars
TTITLE2=Son Of Old Joe
TTITLE3=I Don't Know What To Do
TTITLE4=Two Can Play That Game
TTITLE5=Wishin' Well, Oh Wishin' Well
TTITLE6=Since That Summer Night
TTITLE7=Tomorrow Tears
TTITLE8=Oh Forever Young
TTITLE9=Put Me In The Corner
EXTD=YEAR: 1996
EXTT0=
EXTT1=
EXTT2=
EXTT3=
EXTT4=
EXTT5=
EXTT6=
EXTT7=
EXTT8=
EXTT9=
PLAYORDER=
